HIERARCHY
ROOT Hips
{
	OFFSET 0.000000 0.000000 0.000000
	CHANNELS 6 Xposition Yposition Zposition Zrotation Xrotation Yrotation
	JOINT Spine
	{
		OFFSET 0.000000 0.000000 -1.053067
		CHANNELS 6 Xposition Yposition Zposition Zrotation Xrotation Yrotation
		JOINT Spine1
		{
			OFFSET 0.000000 0.000001 -2.382877
			CHANNELS 6 Xposition Yposition Zposition Zrotation Xrotation Yrotation
			JOINT Neck
			{
				OFFSET 0.000000 0.000001 -2.639722
				CHANNELS 6 Xposition Yposition Zposition Zrotation Xrotation Yrotation
				JOINT Head
				{
					OFFSET 0.000000 0.256846 -1.990555
					CHANNELS 6 Xposition Yposition Zposition Zrotation Xrotation Yrotation
					End Site
					{
						OFFSET 0.000000 0.000001 -2.568457
					}
				}
			}
			JOINT LeftShoulder
			{
				OFFSET 0.512620 -0.056020 -2.153831
				CHANNELS 6 Xposition Yposition Zposition Zrotation Xrotation Yrotation
				JOINT LeftArm
				{
					OFFSET 1.485729 0.000000 0.000000
					CHANNELS 6 Xposition Yposition Zposition Zrotation Xrotation Yrotation
					JOINT LeftForeArm
					{
						OFFSET 3.852898 0.000000 0.000000
						CHANNELS 6 Xposition Yposition Zposition Zrotation Xrotation Yrotation
						JOINT LeftHand
						{
							OFFSET 3.445927 0.000000 0.000000
							CHANNELS 6 Xposition Yposition Zposition Zrotation Xrotation Yrotation
							End Site
							{
								OFFSET 1.926343 0.000000 0.000000
							}
						}
					}
				}
			}
			JOINT RightShoulder
			{
				OFFSET -0.513668 -0.056020 -2.153831
				CHANNELS 6 Xposition Yposition Zposition Zrotation Xrotation Yrotation
				JOINT RightArm
				{
					OFFSET -1.485729 0.000000 0.000000
					CHANNELS 6 Xposition Yposition Zposition Zrotation Xrotation Yrotation
					JOINT RightForeArm
					{
						OFFSET -3.852898 0.000000 0.000000
						CHANNELS 6 Xposition Yposition Zposition Zrotation Xrotation Yrotation
						JOINT RightHand
						{
							OFFSET -3.445927 0.000000 0.000000
							CHANNELS 6 Xposition Yposition Zposition Zrotation Xrotation Yrotation
							End Site
							{
								OFFSET -1.926343 0.000000 0.000000
							}
						}
					}
				}
			}
		}
	}
	JOINT LeftUpLeg
	{
		OFFSET 1.284228 0.000000 0.000000
		CHANNELS 6 Xposition Yposition Zposition Zrotation Xrotation Yrotation
		JOINT LeftLeg
		{
			OFFSET 0.000000 -0.000003 6.684024
			CHANNELS 6 Xposition Yposition Zposition Zrotation Xrotation Yrotation
			JOINT LeftFoot
			{
				OFFSET 0.000000 -0.000003 5.369456
				CHANNELS 6 Xposition Yposition Zposition Zrotation Xrotation Yrotation
				JOINT LeftToeBase
				{
					OFFSET 0.000000 1.926342 0.834749
					CHANNELS 6 Xposition Yposition Zposition Zrotation Xrotation Yrotation
					End Site
					{
						OFFSET 0.000000 0.513691 0.000000
					}
				}
			}
		}
	}
	JOINT RightUpLeg
	{
		OFFSET -1.284228 0.000000 0.000000
		CHANNELS 6 Xposition Yposition Zposition Zrotation Xrotation Yrotation
		JOINT RightLeg
		{
			OFFSET 0.000000 -0.000003 6.684024
			CHANNELS 6 Xposition Yposition Zposition Zrotation Xrotation Yrotation
			JOINT RightFoot
			{
				OFFSET 0.000000 -0.000003 5.369456
				CHANNELS 6 Xposition Yposition Zposition Zrotation Xrotation Yrotation
				JOINT RightToeBase
				{
					OFFSET 0.000000 1.926342 0.834749
					CHANNELS 6 Xposition Yposition Zposition Zrotation Xrotation Yrotation
					End Site
					{
						OFFSET 0.000000 0.513691 0.000000
					}
				}
			}
		}
	}
}
MOTION
Frames: 6
Frame Time: 0.041667
-0.565405 -1.058782 -11.932114 -86.351165 9.580861 3.171466 0.000000 0.000001 -1.053067 6.540308 -8.345492 0.157193 0.000000 0.000001 -2.382874 2.080431 0.690886 13.271416 0.000001 0.000001 -2.639725 28.805162 15.447590 -22.364732 -0.000001 0.256848 -1.990552 28.179965 14.078079 35.372327 0.512620 -0.056020 -2.153831 10.087428 0.673376 15.907423 1.485727 -0.000000 -0.000002 1.364953 16.010201 -10.068791 3.852898 0.000002 0.000001 -0.339136 -26.356348 14.384237 3.445929 0.000001 -0.000000 2.191948 -26.987756 -37.764751 -0.513667 -0.056020 -2.153834 6.563101 7.658277 -6.621820 -1.485729 0.000000 0.000002 -19.071432 19.984500 36.614797 -3.852898 0.000002 -0.000001 -62.738559 8.163878 -18.582981 -3.445926 0.000001 -0.000000 -4.003302 -3.460621 5.241588 1.284228 0.000000 -0.000001 6.053276 -16.249017 9.046190 -0.000001 -0.000003 6.684023 -13.517356 30.170892 -3.755722 -0.000001 -0.000002 5.369456 -19.099084 -12.190883 -4.614342 -0.000001 1.926343 0.834748 0.000005 -0.000003 0.000002 -1.284228 0.000000 -0.000001 -7.747888 -20.880780 -11.380881 -0.000000 -0.000004 6.684022 -2.643123 37.213627 7.180077 0.000000 -0.000002 5.369459 2.157955 -20.611890 5.266913 0.000000 1.926342 0.834750 -0.000000 -0.000000 -0.000000 
-0.565673 -1.100466 -11.946294 -86.113024 9.580146 3.109414 0.000000 0.000001 -1.053067 6.532911 -8.404314 0.242031 0.000000 0.000001 -2.382877 2.084860 0.624265 13.030900 0.000001 -0.000000 -2.639722 28.822978 15.559557 -22.455485 -0.000001 0.256846 -1.990554 28.297267 13.580397 35.502739 0.512621 -0.056020 -2.153831 10.130634 0.736526 15.959316 1.485728 -0.000000 -0.000002 1.280245 15.872909 -10.054495 3.852903 -0.000001 -0.000005 -0.295927 -26.312018 14.379090 3.445928 0.000001 0.000001 2.173515 -26.945151 -37.884150 -0.513667 -0.056020 -2.153832 6.540053 7.478843 -6.833976 -1.485729 -0.000000 0.000003 -18.549149 19.950069 36.155391 -3.852898 0.000001 -0.000001 -64.135005 7.672234 -20.304156 -3.445931 -0.000000 -0.000002 -4.213999 -5.512583 8.224915 1.284228 -0.000000 0.000001 5.744838 -15.794642 8.673304 -0.000001 -0.000003 6.684021 -13.598931 29.117342 -3.694605 -0.000001 -0.000003 5.369458 -19.300716 -12.179496 -4.490598 -0.000000 1.926343 0.834749 -0.000001 -0.000001 0.000001 -1.284228 -0.000000 0.000001 -7.931487 -20.745479 -11.525756 0.000000 -0.000003 6.684023 -2.463100 36.841473 6.972867 0.000000 -0.000003 5.369460 1.966937 -20.191115 5.532653 0.000000 1.926342 0.834749 -0.000000 0.000002 -0.000000 
-0.567124 -1.143171 -11.959994 -85.904519 9.574929 3.052707 -0.000000 0.000000 -1.053067 6.542531 -8.429254 0.338280 0.000000 0.000001 -2.382879 2.098991 0.517719 12.761711 -0.000000 0.000001 -2.639718 28.859161 15.664508 -22.534701 -0.000000 0.256850 -1.990553 28.426443 13.114301 35.598560 0.512621 -0.056020 -2.153831 10.175650 0.797967 16.039939 1.485726 0.000000 -0.000001 1.356131 16.062583 -10.157983 3.852898 0.000000 -0.000001 -0.388371 -26.475312 14.483898 3.445927 0.000000 0.000004 2.145509 -27.089905 -37.971252 -0.513668 -0.056020 -2.153830 6.406240 7.218148 -7.072123 -1.485728 -0.000000 -0.000002 -17.671381 19.704116 35.624146 -3.852896 0.000001 -0.000002 -65.724848 7.166508 -21.496963 -3.445930 -0.000002 -0.000000 -4.019736 -7.302850 10.829040 1.284228 -0.000000 0.000001 5.421583 -15.388925 8.272207 -0.000001 -0.000003 6.684022 -14.127375 28.107294 -3.437280 -0.000002 -0.000002 5.369459 -19.171077 -12.198025 -4.058167 -0.000000 1.926343 0.834749 0.000002 -0.000001 -0.000000 -1.284229 -0.000000 -0.000000 -8.097075 -20.617285 -11.643926 -0.000000 -0.000003 6.684023 -2.158604 36.494247 6.619910 -0.000000 -0.000003 5.369460 1.699375 -19.774123 5.832337 0.000000 1.926342 0.834750 -0.000000 -0.000000 -0.000001 
-0.569232 -1.186777 -11.974534 -85.676718 9.572336 3.006570 0.000000 0.000000 -1.053065 6.537763 -8.399358 0.408360 0.000000 0.000002 -2.382876 2.119384 0.311275 12.530818 -0.000001 0.000001 -2.639720 28.891301 15.783679 -22.671599 -0.000001 0.256847 -1.990557 28.541723 12.668765 35.694968 0.512620 -0.056020 -2.153828 10.169752 0.924043 16.080460 1.485727 -0.000001 0.000001 1.218193 15.544894 -10.051335 3.852898 0.000001 -0.000005 -0.272657 -26.234468 14.331511 3.445928 0.000001 -0.000004 2.145083 -26.862478 -37.907775 -0.513669 -0.056020 -2.153825 6.361644 7.080921 -7.393384 -1.485730 0.000000 -0.000001 -16.874252 19.236873 35.043563 -3.852898 0.000002 0.000001 -67.281181 6.682263 -22.592060 -3.445929 0.000001 -0.000001 -3.753631 -9.024235 13.182389 1.284229 -0.000000 0.000004 5.113833 -15.009018 7.886881 -0.000000 -0.000003 6.684020 -14.721537 27.221630 -3.202070 -0.000002 -0.000002 5.369457 -18.917898 -12.226587 -3.561794 0.000001 1.926342 0.834749 0.000000 0.000001 0.000000 -1.284228 -0.000000 0.000003 -8.381626 -20.466430 -11.814498 -0.000000 -0.000003 6.684024 -1.907334 36.115930 6.362457 -0.000000 -0.000004 5.369460 1.559011 -19.343832 6.126411 -0.000000 1.926343 0.834750 -0.000000 0.000000 -0.000000 
-0.572007 -1.231680 -11.988187 -85.487167 9.559215 2.970343 -0.000000 0.000000 -1.053066 6.542565 -8.404288 0.507823 0.000000 0.000002 -2.382877 2.133060 0.183389 12.210177 -0.000001 0.000001 -2.639730 28.920739 15.923005 -22.753670 0.000001 0.256848 -1.990551 28.657391 12.198378 35.863626 0.512620 -0.056020 -2.153834 10.209249 0.995287 16.176099 1.485725 0.000000 -0.000000 1.205432 15.434477 -10.029405 3.852898 -0.000002 -0.000001 -0.261276 -26.249436 14.289362 3.445929 0.000002 -0.000002 2.102573 -26.866576 -37.954115 -0.513669 -0.056020 -2.153832 6.145317 6.790661 -7.587591 -1.485729 0.000000 0.000002 -16.172532 19.180255 34.601301 -3.852899 0.000004 -0.000003 -68.521271 6.456832 -24.266004 -3.445929 0.000002 0.000002 -3.522031 -10.852422 15.610059 1.284228 0.000000 0.000001 4.836632 -14.682234 7.487599 -0.000001 -0.000003 6.684019 -14.968699 26.401919 -3.036167 -0.000000 -0.000001 5.369457 -18.852584 -12.166719 -3.088897 0.000000 1.926342 0.834749 -0.000002 0.000001 -0.000001 -1.284228 0.000000 0.000001 -8.615572 -20.305041 -11.984322 -0.000000 -0.000003 6.684022 -1.747828 35.719854 6.151881 -0.000000 -0.000003 5.369459 1.490691 -18.928085 6.423717 0.000000 1.926342 0.834749 -0.000000 0.000001 0.000000 
-0.574404 -1.276016 -12.002951 -85.338583 9.534891 2.916493 -0.000000 0.000000 -1.053067 6.570216 -8.415993 0.614902 0.000000 0.000001 -2.382874 2.150436 0.083566 11.901859 -0.000001 -0.000000 -2.639728 28.978720 16.053675 -22.824085 -0.000001 0.256846 -1.990557 28.802997 11.728095 36.024064 0.512620 -0.056021 -2.153832 10.250342 1.094955 16.286489 1.485731 0.000000 0.000000 1.246561 15.367314 -10.041994 3.852898 -0.000001 -0.000002 -0.327261 -26.301081 14.253001 3.445928 0.000001 -0.000002 2.104426 -26.911599 -37.974462 -0.513668 -0.056021 -2.153834 5.919673 6.453713 -7.800193 -1.485729 0.000000 0.000002 -15.714647 19.297164 34.313006 -3.852896 0.000000 -0.000003 -69.337697 6.528282 -26.442411 -3.445926 -0.000000 0.000002 -3.360272 -12.680906 18.184603 1.284228 -0.000000 0.000001 4.528173 -14.418509 7.112821 -0.000002 -0.000003 6.684023 -14.995313 25.735748 -2.881561 -0.000002 -0.000003 5.369460 -18.854177 -12.061476 -2.823179 -0.000000 1.926343 0.834749 0.000007 -0.000003 0.000001 -1.284229 -0.000000 0.000002 -8.822049 -20.138635 -12.112204 -0.000000 -0.000003 6.684024 -1.487818 35.348278 5.861094 0.000000 -0.000002 5.369459 1.350269 -18.478491 6.665060 0.000000 1.926342 0.834750 -0.000000 0.000003 -0.000000 
